<?xml version="1.0" encoding="UTF-8" standalone="no"?>
<!DOCTYPE svg PUBLIC "-//W3C//DTD SVG 1.1//EN" "http://www.w3.org/Graphics/SVG/1.1/DTD/svg11.dtd">
<svg version="1.1" xmlns="http://www.w3.org/2000/svg" xmlns:xlink="http://www.w3.org/1999/xlink" preserveAspectRatio="xMidYMid meet" viewBox="0 0 640 640" width="640" height="640"><defs><path d="M354.84 240.04L355.81 239.72L357.32 239.19L358.91 238.58L360.58 237.9L362.33 237.15L364.14 236.35L366.01 235.49L367.94 234.58L369.92 233.63L371.94 232.64L373.99 231.61L376.07 230.56L378.18 229.49L380.3 228.4L382.44 227.31L384.57 226.2L386.71 225.1L388.83 224L390.94 222.92L393.03 221.85L395.09 220.8L397.12 219.79L399.11 218.8L401.05 217.85L402.93 216.95L404.76 216.1L406.52 215.3L408.21 214.57L409.82 213.9L411.35 213.3L412.78 212.78L414.12 212.34L414.71 212.17L415.34 212.03L416 211.9L416.69 211.8L417.4 211.71L418.14 211.64L418.9 211.59L419.68 211.55L420.48 211.53L421.29 211.53L422.11 211.54L422.95 211.57L423.79 211.61L424.64 211.66L425.5 211.73L426.35 211.8L427.2 211.89L428.05 211.99L428.9 212.1L429.73 212.22L430.56 212.35L431.37 212.48L432.17 212.62L432.95 212.77L433.71 212.93L434.45 213.09L435.17 213.25L435.86 213.42L436.52 213.59L437.15 213.77L437.74 213.94L438.3 214.12L438.83 214.3L439.31 214.48L439.75 214.66L440.15 214.84L440.5 215.02L440.8 215.19L441.05 215.36L441.24 215.53L442.98 217.25L444.68 218.91L446.35 220.51L447.98 222.06L449.58 223.55L451.14 224.99L452.67 226.37L454.17 227.69L455.64 228.96L457.07 230.17L458.47 231.32L459.84 232.42L461.18 233.46L462.49 234.44L463.77 235.37L465.02 236.24L466.24 237.06L467.43 237.82L468.6 238.52L469.73 239.17L470.84 239.75L471.92 240.29L472.97 240.76L474 241.18L475 241.55L475.97 241.85L476.92 242.1L477.85 242.29L478.75 242.43L479.63 242.51L480.48 242.53L481.31 242.5L482.12 242.41L482.9 242.26L483.66 242.06L484.41 241.8L485.13 241.48L485.83 241.1L486.51 240.67L487.16 240.18L487.96 239.45L488.66 238.62L489.27 237.68L489.77 236.63L490.18 235.49L490.49 234.25L490.71 232.92L490.84 231.5L490.87 229.99L490.82 228.39L490.67 226.71L490.44 224.95L490.12 223.12L489.71 221.21L489.22 219.23L488.65 217.18L487.99 215.06L487.25 212.89L486.43 210.65L485.53 208.35L484.56 206L483.5 203.6L482.37 201.15L482.27 200.93L484.17 202.09L490.02 205.94L495.59 209.92L500.89 214.01L505.9 218.22L510.62 222.53L515.04 226.95L519.15 231.47L522.94 236.09L526.4 240.8L529.54 245.6L532.33 250.49L534.78 255.45L536.87 260.49L538.6 265.6L539.96 270.78L540.94 276.02L541.53 281.32L541.73 286.67L541.53 292.03L540.94 297.33L539.96 302.57L538.6 307.75L536.87 312.86L534.78 317.9L532.33 322.86L529.54 327.75L526.4 332.54L522.94 337.26L519.15 341.87L515.04 346.4L510.62 350.82L505.9 355.13L500.89 359.34L495.59 363.43L490.02 367.4L484.17 371.26L478.06 374.98L471.7 378.58L465.08 382.04L458.23 385.36L451.15 388.54L443.84 391.58L436.32 394.46L428.59 397.19L420.65 399.75L412.53 402.15L404.21 404.39L395.72 406.45L387.06 408.34L381.43 409.43L381.7 409.16L382.94 407.92L384.13 406.67L385.29 405.41L386.4 404.16L387.48 402.9L388.51 401.65L389.5 400.4L390.45 399.15L391.35 397.91L392.21 396.67L393.03 395.45L393.79 394.23L394.51 393.03L395.18 391.84L395.8 390.67L396.38 389.51L396.9 388.37L397.37 387.25L397.79 386.16L398.15 385.09L398.46 384.04L398.72 383.02L398.92 382.03L399.07 381.06L399.16 380.13L399.19 379.23L399.16 378.37L399.08 377.54L398.93 376.75L398.72 376.01L398.45 375.3L398.12 374.63L397.73 374.01L397.5 373.73L397.75 373.56L380.06 348.07L380.06 348.01L380.02 348.01L374.67 340.3L363.06 320.84L346.06 292.34L329.06 320.84L312.86 348.01L311.27 348.01L295.06 320.84L278.06 292.34L261.06 320.84L247.26 343.99L247.24 343.97L244.12 348.01L244.06 348.01L244.06 348.08L224.92 372.88L224.87 372.91L224.36 373.43L223.9 374.01L223.5 374.63L223.17 375.3L222.9 376.01L222.7 376.75L222.55 377.54L222.47 378.37L222.44 379.23L222.47 380.13L222.56 381.06L222.7 382.03L222.91 383.02L223.16 384.04L223.48 385.09L223.84 386.16L224.26 387.25L224.73 388.37L225.25 389.51L225.82 390.67L226.45 391.84L227.12 393.03L227.84 394.23L228.6 395.45L229.41 396.67L230.27 397.91L231.18 399.15L232.12 400.4L233.12 401.65L234.15 402.9L235.22 404.16L236.34 405.41L237.5 406.67L238.69 407.92L239.93 409.16L241.2 410.39L242.51 411.62L243.64 412.65L236.2 411.56L227.22 410.04L218.4 408.34L209.74 406.45L201.25 404.39L192.94 402.15L184.81 399.75L176.87 397.19L169.14 394.46L161.62 391.58L154.31 388.54L147.23 385.36L140.38 382.04L133.77 378.58L127.4 374.98L121.29 371.26L115.45 367.4L109.87 363.43L104.57 359.34L99.56 355.13L94.84 350.82L90.42 346.4L86.32 341.87L82.52 337.26L79.06 332.54L75.92 327.75L73.13 322.86L70.68 317.9L68.59 312.86L66.86 307.75L65.5 302.57L64.52 297.33L63.93 292.03L63.73 286.67L63.93 281.32L64.52 276.02L65.5 270.78L66.86 265.6L68.59 260.49L70.68 255.45L73.13 250.49L75.92 245.6L79.06 240.8L82.52 236.09L86.32 231.47L90.42 226.95L94.84 222.53L99.56 218.22L104.57 214.01L109.87 209.92L115.45 205.94L121.29 202.09L127.4 198.36L133.77 194.77L140.38 191.31L147.23 187.98L149.42 187L148.95 187.8L147.46 190.46L146.04 193.08L144.68 195.66L143.4 198.21L142.2 200.7L141.07 203.16L140.02 205.56L139.04 207.91L138.14 210.21L137.32 212.44L136.58 214.62L135.92 216.74L135.35 218.79L134.86 220.77L134.45 222.68L134.13 224.51L133.9 226.27L133.75 227.95L133.7 229.54L133.73 231.05L133.86 232.48L134.08 233.81L134.39 235.05L134.8 236.19L135.31 237.23L135.91 238.18L136.61 239.01L137.41 239.74L138.07 240.23L138.75 240.66L139.45 241.04L140.17 241.35L140.91 241.61L141.67 241.82L142.46 241.97L143.26 242.06L144.09 242.09L144.95 242.07L145.82 241.99L146.72 241.85L147.65 241.66L148.6 241.41L149.57 241.1L150.58 240.74L151.6 240.32L152.66 239.85L153.74 239.31L154.84 238.72L155.98 238.08L157.14 237.38L158.33 236.62L159.55 235.8L160.8 234.93L162.08 234L163.39 233.02L164.73 231.98L166.1 230.88L167.5 229.73L168.93 228.52L170.4 227.25L171.9 225.93L173.43 224.55L174.99 223.11L176.59 221.62L178.22 220.07L179.89 218.47L181.59 216.81L183.33 215.09L183.53 214.92L183.77 214.75L184.07 214.58L184.42 214.4L184.82 214.22L185.26 214.04L185.74 213.86L186.27 213.68L186.83 213.5L187.43 213.33L188.06 213.15L188.72 212.98L189.41 212.81L190.12 212.64L190.86 212.48L191.62 212.33L192.4 212.18L193.2 212.04L194.02 211.9L194.84 211.78L195.68 211.66L196.52 211.55L197.37 211.45L198.22 211.36L199.08 211.29L199.93 211.22L200.78 211.17L201.62 211.13L202.46 211.1L203.28 211.09L204.09 211.09L204.89 211.11L205.67 211.14L206.43 211.2L207.17 211.27L207.89 211.35L208.57 211.46L209.23 211.59L209.86 211.73L210.46 211.9L211.79 212.34L213.23 212.86L214.75 213.46L216.36 214.13L218.05 214.86L219.81 215.66L221.64 216.51L223.53 217.41L225.47 218.36L227.45 219.34L229.48 220.36L231.54 221.41L233.63 222.48L235.74 223.56L237.86 224.66L240 225.76L242.14 226.86L244.27 227.96L246.39 229.05L248.5 230.12L250.58 231.17L252.64 232.19L254.65 233.18L256.63 234.14L258.56 235.05L260.43 235.91L262.24 236.71L263.99 237.46L265.66 238.14L267.25 238.75L268.76 239.28L270.17 239.73L270.46 239.81L290.31 212.59L310.87 184.41L311.41 183.59L311.47 183.59L312.56 182.09L334.81 212.59L354.84 240.04ZM175.06 259.64L172.6 259.77L170.17 259.95L167.78 260.17L165.41 260.44L163.08 260.76L160.79 261.12L158.54 261.53L156.33 261.98L154.16 262.47L152.04 263L149.97 263.58L147.94 264.19L145.97 264.84L144.05 265.53L142.18 266.25L140.37 267.01L138.63 267.8L136.94 268.62L135.31 269.48L133.76 270.37L132.26 271.29L130.84 272.24L129.49 273.21L128.21 274.22L127 275.25L125.88 276.3L124.83 277.38L123.86 278.48L122.98 279.6L122.18 280.75L121.46 281.91L120.84 283.09L120.3 284.3L119.86 285.52L119.52 286.75L119.27 288L119.11 289.26L119.06 290.54L119.07 291.19L119.1 291.82L119.14 292.45L119.2 293.08L119.28 293.69L119.37 294.3L119.48 294.91L119.6 295.5L119.73 296.09L119.88 296.67L120.05 297.24L120.22 297.81L120.41 298.37L120.6 298.92L120.81 299.47L121.03 300L121.26 300.53L121.5 301.06L121.74 301.57L122 302.08L122.26 302.58L122.53 303.07L122.81 303.55L123.09 304.03L123.38 304.5L123.68 304.96L123.98 305.42L124.28 305.86L124.59 306.3L124.9 306.73L125.21 307.15L125.53 307.57L125.84 307.97L126.16 308.37L126.48 308.76L126.8 309.14L127.11 309.52L127.43 309.89L127.75 310.24L128.06 310.59L128.38 310.92L128.71 311.23L129.05 311.52L129.42 311.78L129.8 312.03L130.2 312.26L130.61 312.47L131.05 312.67L131.5 312.84L131.97 313L132.47 313.15L132.98 313.28L133.51 313.4L134.06 313.51L134.64 313.6L135.24 313.68L135.85 313.75L136.49 313.81L137.16 313.86L137.85 313.9L138.56 313.93L139.29 313.95L140.05 313.97L140.83 313.98L141.64 313.98L142.48 313.98L143.34 313.98L144.22 313.97L145.14 313.96L146.08 313.94L147.04 313.92L148.04 313.91L149.06 313.89L150.12 313.87L151.2 313.85L152.31 313.84L153.45 313.83L154.63 313.82L155.83 313.81L157.06 313.81L158.01 313.8L158.96 313.78L159.91 313.75L160.85 313.71L161.8 313.66L162.74 313.6L163.69 313.53L164.63 313.45L165.57 313.35L166.5 313.25L167.44 313.14L168.37 313.02L169.3 312.89L170.23 312.76L171.15 312.61L172.07 312.46L172.98 312.3L173.89 312.13L174.8 311.96L175.7 311.78L176.59 311.59L177.48 311.4L178.36 311.2L179.24 311L180.11 310.79L180.97 310.58L181.83 310.36L182.67 310.14L183.51 309.91L184.35 309.68L185.17 309.45L185.99 309.21L186.79 308.97L187.59 308.73L188.38 308.49L189.15 308.24L189.92 307.99L190.68 307.74L191.43 307.49L192.16 307.24L193.39 306.82L194.63 306.39L195.89 305.94L197.17 305.49L198.45 305.02L199.74 304.54L201.04 304.06L202.34 303.56L203.63 303.05L204.93 302.54L206.22 302.01L207.5 301.47L208.78 300.92L210.04 300.37L211.29 299.8L212.51 299.22L213.72 298.63L214.91 298.04L216.07 297.43L217.2 296.81L218.3 296.19L219.37 295.55L220.4 294.91L221.4 294.25L222.35 293.59L223.26 292.91L224.13 292.23L224.94 291.54L225.71 290.84L226.42 290.13L227.08 289.41L227.68 288.68L228.22 287.94L228.69 287.2L229.1 286.44L229.44 285.68L229.71 284.91L229.9 284.13L230.02 283.34L230.06 282.54L230.06 281.88L230.05 281.25L230.03 280.64L230.01 280.05L229.97 279.49L229.93 278.95L229.88 278.43L229.82 277.93L229.74 277.45L229.65 277L229.55 276.56L229.44 276.13L229.32 275.73L229.17 275.34L229.02 274.96L228.85 274.6L228.66 274.26L228.45 273.92L228.23 273.6L227.99 273.29L227.73 272.99L227.45 272.7L227.14 272.41L226.82 272.14L226.48 271.87L226.11 271.61L225.72 271.35L225.31 271.09L224.87 270.84L224.41 270.6L223.92 270.35L223.41 270.11L222.86 269.87L222.3 269.62L221.7 269.38L221.07 269.13L220.42 268.88L219.73 268.62L219.01 268.36L218.26 268.1L217.56 267.85L216.85 267.6L216.13 267.34L215.38 267.07L214.63 266.8L213.86 266.53L213.08 266.25L212.28 265.97L211.47 265.68L210.65 265.4L209.82 265.11L208.97 264.83L208.1 264.54L207.23 264.26L206.34 263.97L205.44 263.69L204.52 263.41L203.6 263.14L202.65 262.87L201.7 262.61L200.74 262.35L199.76 262.1L198.77 261.86L197.76 261.62L196.75 261.4L195.72 261.18L194.68 260.97L193.62 260.78L192.56 260.6L191.48 260.42L190.39 260.27L189.29 260.12L188.18 259.99L187.05 259.88L185.92 259.78L184.77 259.69L183.61 259.63L182.44 259.58L181.26 259.55L180.06 259.54L177.55 259.57L175.06 259.64ZM430.57 259.58L429.39 259.63L428.23 259.69L427.09 259.78L425.95 259.88L424.83 259.99L423.71 260.12L422.61 260.27L421.52 260.42L420.45 260.6L419.38 260.78L418.33 260.97L417.29 261.18L416.26 261.4L415.24 261.62L414.24 261.86L413.25 262.1L412.27 262.35L411.3 262.61L410.35 262.87L409.41 263.14L408.48 263.41L407.57 263.69L406.67 263.97L405.78 264.26L404.9 264.54L404.04 264.83L403.19 265.11L402.35 265.4L401.53 265.68L400.72 265.97L399.93 266.25L399.14 266.53L398.38 266.8L397.62 267.07L396.88 267.34L396.15 267.6L395.44 267.85L394.74 268.1L393.99 268.36L393.28 268.62L392.59 268.88L391.93 269.13L391.31 269.38L390.71 269.62L390.14 269.87L389.6 270.11L389.08 270.35L388.6 270.6L388.13 270.84L387.7 271.09L387.28 271.35L386.89 271.61L386.53 271.87L386.18 272.14L385.86 272.41L385.56 272.7L385.28 272.99L385.02 273.29L384.78 273.6L384.55 273.92L384.35 274.26L384.16 274.6L383.99 274.96L383.83 275.34L383.69 275.73L383.56 276.13L383.45 276.56L383.35 277L383.26 277.45L383.19 277.93L383.13 278.43L383.07 278.95L383.03 279.49L383 280.05L382.97 280.64L382.95 281.25L382.94 281.88L382.94 282.54L382.98 283.34L383.1 284.13L383.3 284.91L383.56 285.68L383.9 286.44L384.31 287.2L384.79 287.94L385.33 288.68L385.92 289.41L386.58 290.13L387.29 290.84L388.06 291.54L388.88 292.23L389.74 292.91L390.65 293.59L391.61 294.25L392.6 294.91L393.64 295.55L394.71 296.19L395.81 296.81L396.94 297.43L398.1 298.04L399.28 298.63L400.49 299.22L401.72 299.8L402.97 300.37L404.23 300.92L405.5 301.47L406.78 302.01L408.08 302.54L409.37 303.05L410.67 303.56L411.97 304.06L413.26 304.54L414.56 305.02L415.84 305.49L417.11 305.94L418.37 306.39L419.62 306.82L420.84 307.24L421.58 307.49L422.33 307.74L423.08 307.99L423.85 308.24L424.63 308.49L425.42 308.73L426.21 308.97L427.02 309.21L427.84 309.45L428.66 309.68L429.49 309.91L430.33 310.14L431.18 310.36L432.04 310.58L432.9 310.79L433.77 311L434.64 311.2L435.53 311.4L436.41 311.59L437.31 311.78L438.21 311.96L439.11 312.13L440.02 312.3L440.94 312.46L441.85 312.61L442.78 312.76L443.7 312.89L444.63 313.02L445.56 313.14L446.5 313.25L447.44 313.35L448.38 313.45L449.32 313.53L450.26 313.6L451.21 313.66L452.15 313.71L453.1 313.75L454.05 313.78L454.99 313.8L455.94 313.81L457.18 313.81L458.38 313.82L459.55 313.83L460.69 313.84L461.8 313.85L462.89 313.87L463.94 313.89L464.96 313.91L465.96 313.92L466.93 313.94L467.87 313.96L468.78 313.97L469.67 313.98L470.53 313.98L471.36 313.98L472.17 313.98L472.96 313.97L473.72 313.95L474.45 313.93L475.16 313.9L475.85 313.86L476.51 313.81L477.15 313.75L477.77 313.68L478.37 313.6L478.94 313.51L479.49 313.4L480.03 313.28L480.54 313.15L481.03 313L481.51 312.84L481.96 312.67L482.39 312.47L482.81 312.26L483.21 312.03L483.59 311.78L483.95 311.52L484.3 311.23L484.63 310.92L484.94 310.59L485.26 310.24L485.57 309.89L485.89 309.52L486.21 309.14L486.53 308.76L486.85 308.37L487.16 307.97L487.48 307.57L487.79 307.15L488.11 306.73L488.42 306.3L488.73 305.86L489.03 305.42L489.33 304.96L489.62 304.5L489.91 304.03L490.19 303.55L490.47 303.07L490.74 302.58L491.01 302.08L491.26 301.57L491.51 301.06L491.75 300.53L491.97 300L492.19 299.47L492.4 298.92L492.6 298.37L492.79 297.81L492.96 297.24L493.12 296.67L493.27 296.09L493.41 295.5L493.53 294.91L493.63 294.3L493.73 293.69L493.8 293.08L493.86 292.45L493.91 291.82L493.93 291.19L493.94 290.54L493.89 289.26L493.74 288L493.49 286.75L493.14 285.52L492.7 284.3L492.17 283.09L491.54 281.91L490.83 280.75L490.03 279.6L489.14 278.48L488.18 277.38L487.13 276.3L486 275.25L484.8 274.22L483.52 273.21L482.17 272.24L480.74 271.29L479.25 270.37L477.69 269.48L476.07 268.62L474.38 267.8L472.63 267.01L470.82 266.25L468.96 265.53L467.04 264.84L465.06 264.19L463.04 263.58L460.96 263L458.84 262.47L456.68 261.98L454.47 261.53L452.21 261.12L449.92 260.76L447.59 260.44L445.23 260.17L442.83 259.95L440.4 259.77L437.94 259.64L435.45 259.57L432.94 259.54L431.75 259.55L430.57 259.58Z" id="aaZZnKQoV"></path><path d="" id="d2fnp1CyAI"></path></defs><g><g><g><use xlink:href="#aaZZnKQoV" opacity="1" fill="#000000" fill-opacity="1"></use></g><g><g><use xlink:href="#d2fnp1CyAI" opacity="1" fill-opacity="0" stroke="#000000" stroke-width="15" stroke-opacity="1"></use></g></g></g></g></svg>